<svg width="682" height="259" viewBox="0 0 682 259" fill="none" xmlns="http://www.w3.org/2000/svg">
<g clip-path="url(#clip0_2_679)">
<path d="M315.61 55.49H341.35V116.15H346.47L370.48 55.49H398.21L367.22 127.12V127.72L401.61 203.74H373.48L346.48 138.89H341.36V203.74H315.62V55.49H315.61Z" fill="white"/>
<path d="M429.24 201.44C423.05 198.32 418.37 193.73 415.17 187.67C411.98 181.62 410.38 174 410.38 164.82V156.04H435.92V164.82C435.92 168.15 436.35 171.27 437.22 174.2C438.08 177.13 439.75 179.46 442.21 181.18C444.67 182.91 447.96 183.77 452.09 183.77C456.88 183.77 460.47 182.44 462.86 179.78C465.25 177.12 466.45 173.46 466.45 168.81V159.63C466.45 155.24 465.72 151.75 464.26 149.15C462.79 146.56 460.7 144.46 457.97 142.86C455.24 141.26 451.15 139.34 445.7 137.07C445.17 136.67 444.6 136.34 444 136.07C443.4 135.8 442.83 135.54 442.3 135.27C442.17 135.14 441.93 135.01 441.6 134.87C441.27 134.74 440.97 134.6 440.7 134.47C434.05 131.41 428.76 128.32 424.84 125.19C420.92 122.07 417.92 118.21 415.86 113.62C413.8 109.03 412.77 103.34 412.77 96.56V87.98C412.77 80.67 414.33 74.35 417.46 69.02C420.58 63.7 425.07 59.74 430.93 57.15C436.78 54.56 443.7 53.26 451.68 53.26C464.45 53.26 474.23 56.79 481.01 63.84C487.79 70.89 491.19 80.67 491.19 93.17V101.35H466.45V93.17C466.45 87.58 465.28 83.26 462.96 80.2C460.63 77.14 456.81 75.61 451.49 75.61C448.7 75.61 446.27 76.14 444.21 77.21C442.15 78.28 440.68 79.77 439.82 81.7C438.95 83.63 438.52 85.72 438.52 87.99V96.37C438.52 99.7 439.22 102.46 440.62 104.65C442.02 106.85 443.71 108.57 445.71 109.84C447.71 111.11 450.63 112.53 454.49 114.13C454.76 114.26 455.05 114.43 455.39 114.63C455.72 114.83 456.02 115 456.29 115.13C464.94 118.59 471.82 122.25 476.94 126.1C482.06 129.96 485.98 134.55 488.71 139.87C491.43 145.19 492.8 151.84 492.8 159.82V169.4C492.8 176.85 491.04 183.4 487.51 189.05C483.98 194.71 479.23 198.96 473.24 201.82C467.25 204.68 460.27 206.11 452.29 206.11C443.11 206.11 435.43 204.54 429.25 201.42L429.24 201.44Z" fill="white"/>
<path d="M528.5 55.49L549.25 166.43L550.45 177.01H550.85L552.05 166.43L572.8 55.49H598.94L567.61 203.74H533.89L502.17 55.49H528.51H528.5Z" fill="white"/>
<path d="M630.86 79.03H606.26L611.24 55.49H682.14V79.03H656.2V203.73H630.86V79.03Z" fill="white"/>
<path d="M129.71 259.42C201.347 259.42 259.42 201.347 259.42 129.71C259.42 58.0731 201.347 0 129.71 0C58.0732 0 0 58.0731 0 129.71C0 201.347 58.0732 259.42 129.71 259.42Z" fill="#334D8E"/>
<path d="M213.55 117.9C208.49 81.88 193.75 54.17 180.63 56.02C179.68 56.15 178.76 56.46 177.88 56.89L177.41 57.13C177.29 57.2 177.16 57.26 177.04 57.33L38.2701 133.47C34.4001 135.63 29.5601 138.83 29.5601 145.7C29.5601 154.19 33.7701 157.35 37.2301 158.43L125.29 173.94V183.68C125.29 185.07 124.16 186.2 122.78 186.2C122.63 186.2 122.48 186.19 122.32 186.16L87.1201 179.77C85.9201 179.55 85.0501 178.51 85.0501 177.29V166.86L71.6701 164.5V178.42C71.6701 185.17 76.4901 190.93 83.1401 192.12L122.42 199.15C123.24 199.3 124.07 199.37 124.9 199.37C128.57 199.37 132.03 197.94 134.66 195.34C137.32 192.71 138.79 189.2 138.79 185.45V176.31L196.45 186.46C197.29 186.57 198.13 186.58 198.96 186.46C212.08 184.62 218.61 153.92 213.55 117.9Z" fill="#FCB415"/>
<path d="M217.01 117.41C211.51 78.25 195.67 50.37 180.14 52.54C178.76 52.73 177.45 53.15 176.19 53.8L175.22 54.33C175.22 54.33 175.21 54.34 175.2 54.34L36.5601 130.4C33.4201 132.16 26.0601 136.26 26.0601 145.69C26.0601 157.33 33.1401 160.8 36.1901 161.76C36.3301 161.8 36.4801 161.84 36.6301 161.86L68.1701 167.41V178.4C68.1701 186.85 74.2101 194.06 82.5201 195.55L121.8 202.58C122.82 202.76 123.86 202.86 124.89 202.86C129.48 202.86 133.83 201.07 137.11 197.82C140.44 194.53 142.28 190.13 142.28 185.44V180.47L195.63 189.86L195.83 189.9C195.97 189.93 196.11 189.95 196.24 189.95C196.73 190.01 197.23 190.04 197.73 190.04C198.3 190.04 198.87 190 199.44 189.92C207.35 188.81 213.4 180.21 216.48 165.72C219.32 152.38 219.51 135.22 217 117.41H217.01ZM135.29 185.44C135.29 188.25 134.19 190.88 132.2 192.85C129.79 195.23 126.38 196.3 123.04 195.7L83.7601 188.67C78.7901 187.78 75.1801 183.47 75.1801 178.41V168.66L81.5601 169.78V177.28C81.5601 180.19 83.6401 182.68 86.5101 183.21L121.7 189.6C122.06 189.67 122.43 189.7 122.79 189.7C126.11 189.7 128.8 187 128.8 183.68V178.11L135.29 179.25V185.45V185.44ZM121.8 182.49L88.5601 176.45V171L121.8 176.85V182.49ZM142.29 173.36L121.8 169.75L88.5601 163.9L68.1801 160.31L38.0901 155.01C34.7601 153.87 33.0701 150.74 33.0701 145.69C33.0701 141.26 35.7101 138.9 39.9601 136.53L165.77 67.5C164.72 70.24 163.83 73.33 163.1 76.75C160.26 90.08 160.08 107.24 162.58 125.06C165.99 149.32 173.37 169.25 182.18 180.39L142.3 173.37L142.29 173.36ZM209.65 164.25C207.46 174.54 203.7 181.31 199.45 182.74C199.13 182.85 198.8 182.93 198.47 182.98C198.21 183.02 197.95 183.03 197.69 183.03C195.93 183.03 194.04 182.24 192.09 180.73C183.4 173.99 173.57 152.99 169.5 124.07C167.11 107.05 167.26 90.75 169.94 78.19C171.25 72.02 173.13 67.11 175.34 63.87C177.09 61.29 179.06 59.75 181.11 59.47C181.33 59.44 181.55 59.42 181.78 59.42C181.82 59.41 181.86 59.41 181.9 59.41C191.47 59.41 205.1 82.96 210.08 118.37C212.47 135.4 212.32 151.69 209.65 164.25Z" fill="#202C59"/>
</g>
<defs>
<clipPath id="clip0_2_679">
<rect width="682" height="259" fill="white"/>
</clipPath>
</defs>
</svg>
