<svg width="823" height="188" viewBox="0 0 823 188" fill="none" xmlns="http://www.w3.org/2000/svg">
<g clip-path="url(#clip0_2_695)">
<path d="M93.94 187.88C145.822 187.88 187.88 145.822 187.88 93.94C187.88 42.0584 145.822 0 93.94 0C42.0584 0 0 42.0584 0 93.94C0 145.822 42.0584 187.88 93.94 187.88Z" fill="#334D8E"/>
<path d="M154.65 85.38C150.98 59.29 140.31 39.23 130.81 40.56C130.12 40.66 129.46 40.88 128.82 41.19L128.48 41.37C128.39 41.42 128.3 41.46 128.21 41.52L27.71 96.66C24.9 98.22 21.4 100.55 21.4 105.51C21.4 111.66 24.45 113.95 26.96 114.73L90.74 125.96V133.01C90.74 134.02 89.92 134.84 88.92 134.84C88.81 134.84 88.7 134.84 88.59 134.81L63.1 130.18C62.23 130.02 61.6 129.27 61.6 128.38V120.82L51.91 119.11V129.19C51.91 134.08 55.4 138.25 60.22 139.11L88.67 144.2C89.26 144.31 89.87 144.36 90.46 144.36C93.12 144.36 95.63 143.32 97.53 141.44C99.46 139.53 100.52 136.99 100.52 134.27V127.65L142.28 135C142.89 135.08 143.5 135.08 144.1 135C153.6 133.66 158.33 111.43 154.67 85.35L154.65 85.38Z" fill="#FCB415"/>
<path d="M157.16 85.03C153.18 56.67 141.7 36.48 130.46 38.05C129.46 38.19 128.51 38.49 127.6 38.96L126.9 39.34C126.9 39.34 126.9 39.34 126.89 39.34L26.48 94.43C24.21 95.7 18.88 98.67 18.88 105.5C18.88 113.93 24.01 116.44 26.22 117.14C26.32 117.17 26.43 117.2 26.54 117.21L49.38 121.23V129.19C49.38 135.31 53.75 140.53 59.77 141.61L88.22 146.7C88.96 146.83 89.71 146.9 90.46 146.9C93.79 146.9 96.93 145.6 99.31 143.25C101.72 140.87 103.05 137.68 103.05 134.28V130.68L141.69 137.48L141.83 137.51C141.93 137.53 142.03 137.55 142.13 137.55C142.48 137.59 142.85 137.62 143.21 137.62C143.62 137.62 144.04 137.59 144.45 137.53C150.18 136.73 154.56 130.5 156.79 120C158.85 110.34 158.98 97.91 157.17 85.01L157.16 85.03ZM97.97 134.3C97.97 136.33 97.18 138.24 95.73 139.66C93.98 141.39 91.51 142.16 89.09 141.73L60.64 136.64C57.04 136 54.42 132.87 54.42 129.21V122.15L59.04 122.96V128.39C59.04 130.5 60.55 132.3 62.62 132.68L88.11 137.31C88.37 137.36 88.64 137.38 88.9 137.38C91.3 137.38 93.26 135.42 93.26 133.02V128.99L97.96 129.82V134.31L97.97 134.3ZM88.2 132.17L64.13 127.8V123.85L88.2 128.09V132.17ZM103.04 125.56L88.2 122.95L64.13 118.71L49.37 116.11L27.58 112.27C25.17 111.44 23.94 109.18 23.94 105.52C23.94 102.31 25.85 100.6 28.93 98.89L120.05 48.9C119.29 50.88 118.64 53.12 118.12 55.6C116.06 65.25 115.93 77.68 117.74 90.59C120.21 108.16 125.55 122.59 131.94 130.66L103.06 125.57L103.04 125.56ZM151.83 118.97C150.24 126.42 147.52 131.33 144.44 132.36C144.21 132.44 143.97 132.5 143.73 132.53C143.54 132.56 143.35 132.57 143.17 132.57C141.9 132.57 140.53 132 139.11 130.9C132.82 126.02 125.7 110.81 122.75 89.86C121.02 77.53 121.13 65.73 123.07 56.63C124.02 52.16 125.38 48.61 126.98 46.26C128.25 44.39 129.67 43.28 131.16 43.07C131.32 43.05 131.48 43.03 131.65 43.03C131.68 43.03 131.71 43.03 131.74 43.03C138.67 43.03 148.54 60.09 152.15 85.73C153.88 98.06 153.77 109.86 151.84 118.96L151.83 118.97Z" fill="#202C59"/>
<path d="M233.38 34.22H241.59V53.28H246.83L260.03 34.22H269.53L253.74 56.43V56.74L271.63 80.06H262.19L246.83 59.95H241.59V80.06H233.38V34.22Z" fill="white"/>
<path d="M282.52 78.73C279.95 77.23 278.02 75.07 276.72 72.25C275.42 69.43 274.78 66.05 274.78 62.1V61.24C274.78 57.37 275.44 54.06 276.75 51.31C278.07 48.55 280.04 46.44 282.67 44.96C285.3 43.48 288.45 42.74 292.11 42.74C295.77 42.74 299.06 43.45 301.61 44.87C304.16 46.29 306.06 48.36 307.32 51.07C308.57 53.78 309.2 57.14 309.2 61.13V63.41L301.61 62.98V59.65C301.61 57.47 301.27 55.62 300.59 54.1C299.91 52.58 298.86 51.42 297.44 50.61C296.02 49.81 294.22 49.41 292.04 49.41C289.98 49.41 288.25 49.83 286.83 50.67C285.41 51.51 284.32 52.84 283.56 54.65C282.8 56.46 282.42 58.74 282.42 61.5V62.12C282.42 64.83 282.79 67.1 283.53 68.91C284.27 70.72 285.34 72.08 286.74 72.98C288.14 73.89 289.89 74.34 291.98 74.34C294.9 74.34 297.13 73.75 298.67 72.58C300.21 71.41 301.13 69.73 301.42 67.55H309.01C308.76 70.26 307.97 72.64 306.63 74.68C305.29 76.72 303.38 78.28 300.89 79.37C298.4 80.46 295.39 81.01 291.85 81.01C288.31 81.01 285.07 80.26 282.5 78.76L282.52 78.73ZM281.38 58.59H305.44L309.14 60.81L309.2 63.9H281.25L281.37 58.59H281.38Z" fill="white"/>
<path d="M316.49 43.66H324.08V47.24L323.71 51.44H324.33L323.28 53.04C323.94 50.94 324.89 49.12 326.15 47.58C327.4 46.04 328.95 44.85 330.78 44C332.61 43.16 334.72 42.74 337.1 42.74C341.46 42.74 344.84 44.03 347.25 46.6C349.66 49.17 350.86 53.11 350.86 58.41V80.07H343.27V59.46C343.27 56.09 342.54 53.58 341.08 51.93C339.62 50.29 337.47 49.46 334.63 49.46C332.24 49.46 330.27 50.04 328.71 51.19C327.15 52.34 326 53.84 325.25 55.69C324.51 57.54 324.14 59.52 324.14 61.61V80.06H316.49V43.66Z" fill="white"/>
<path d="M356.03 43.66H379.91V50.26H356.03V43.66ZM366.64 79.44C364.95 78.41 363.77 77 363.09 75.21C362.41 73.42 362.07 71.27 362.07 68.76V35.44H369.66V66.97C369.66 69.44 370.1 71.27 370.99 72.46C371.87 73.65 373.45 74.25 375.71 74.25C377.31 74.25 379.04 74.09 380.89 73.76V80.11C379.61 80.36 378.35 80.56 377.1 80.73C375.84 80.89 374.6 80.98 373.37 80.98C370.57 80.98 368.33 80.47 366.65 79.44H366.64Z" fill="white"/>
<path d="M420.63 80.06H413.04V76.48L413.41 72.28H412.85L413.9 70.68C413.2 72.78 412.23 74.6 411 76.14C409.77 77.68 408.22 78.88 406.37 79.72C404.52 80.56 402.42 80.98 400.08 80.98C395.68 80.98 392.28 79.71 389.87 77.15C387.46 74.6 386.26 70.65 386.26 65.3V43.64H393.91V64.31C393.91 67.64 394.64 70.13 396.1 71.78C397.56 73.43 399.69 74.25 402.49 74.25C404.83 74.25 406.8 73.67 408.38 72.52C409.96 71.37 411.14 69.87 411.9 68.02C412.66 66.17 413.04 64.2 413.04 62.1V43.65H420.63V80.05V80.06Z" fill="white"/>
<path d="M436.12 78.7C433.49 77.22 431.49 75.07 430.14 72.25C428.78 69.43 428.1 66.07 428.1 62.16V61.42C428.1 57.51 428.79 54.17 430.17 51.39C431.55 48.61 433.56 46.48 436.22 44.97C438.87 43.47 442.01 42.72 445.63 42.72C449 42.72 451.9 43.27 454.33 44.36C456.76 45.45 458.66 47.07 460.04 49.2C461.42 51.34 462.19 53.95 462.35 57.04H454.58V57.1C454.46 55.41 454.01 53.99 453.25 52.84C452.49 51.69 451.45 50.82 450.13 50.25C448.81 49.67 447.27 49.39 445.5 49.39C443.48 49.39 441.75 49.83 440.29 50.72C438.83 51.61 437.71 52.97 436.93 54.82C436.15 56.67 435.76 58.93 435.76 61.61V62.04C435.76 64.8 436.16 67.1 436.96 68.95C437.76 70.8 438.89 72.16 440.35 73.02C441.81 73.88 443.55 74.32 445.56 74.32C447.41 74.32 448.98 74 450.28 73.36C451.58 72.72 452.59 71.81 453.33 70.61C454.07 69.42 454.52 68.02 454.69 66.41V66.35H462.4C462.24 69.48 461.46 72.14 460.09 74.34C458.71 76.54 456.8 78.19 454.35 79.28C451.9 80.37 448.99 80.92 445.62 80.92C441.92 80.92 438.75 80.18 436.12 78.7Z" fill="white"/>
<path d="M469.37 32.86H477.02V57.97H484.05L493.18 43.66H501.69L490.34 61.18L503.11 80.06H494.41L483.92 64.14H477.01V80.06H469.36V32.86H469.37Z" fill="white"/>
<path d="M516.06 86.52C518.08 84.89 518.76 83.2 519.17 82.21L504.35 43.65H512.49L522.11 71.54L522.36 72.65H522.42L522.73 71.54L532.23 43.65H540.37L526.98 79.74C526.24 81.92 524.79 85.72 521.61 88.97C518.61 92.05 514.22 93.62 512.02 93.84L510.65 88.72C511.67 88.52 514.21 87.99 516.04 86.51L516.06 86.52Z" fill="white"/>
<path d="M571.14 79.1C568.32 77.85 566.22 76.09 564.85 73.83C563.47 71.57 562.74 68.89 562.66 65.81V65.87H570.74C570.78 67.43 571.14 68.85 571.82 70.13C572.5 71.41 573.65 72.45 575.28 73.28C576.9 74.1 579.03 74.51 581.67 74.51C584.96 74.51 587.4 73.92 588.98 72.75C590.56 71.58 591.36 69.88 591.36 67.66C591.36 66.02 591.06 64.72 590.47 63.77C589.87 62.82 588.89 62.04 587.51 61.43C586.13 60.81 584.15 60.18 581.56 59.52C581.27 59.44 580.97 59.37 580.67 59.3C580.37 59.23 580.02 59.19 579.65 59.15C579.53 59.11 579.39 59.08 579.25 59.06C579.11 59.04 578.95 59.01 578.79 58.97C575.21 58.19 572.35 57.24 570.21 56.13C568.07 55.02 566.52 53.62 565.55 51.93C564.58 50.24 564.1 48.13 564.1 45.58C564.1 43.2 564.73 41.08 565.98 39.23C567.23 37.38 569.13 35.94 571.66 34.91C574.19 33.88 577.33 33.37 581.07 33.37C586.95 33.37 591.37 34.69 594.33 37.32C597.29 39.95 598.85 43.51 599.02 47.99H591.25C591.13 45.56 590.3 43.61 588.78 42.13C587.26 40.65 584.77 39.91 581.31 39.91C579.25 39.91 577.57 40.17 576.25 40.68C574.93 41.19 573.97 41.88 573.35 42.75C572.73 43.61 572.42 44.6 572.42 45.71V45.77C572.42 47.05 572.69 48.11 573.22 48.95C573.75 49.79 574.62 50.49 575.81 51.05C577 51.61 578.61 52.09 580.62 52.5C580.87 52.54 581.11 52.59 581.36 52.65C581.61 52.71 581.85 52.78 582.1 52.87C586.58 53.73 590.1 54.79 592.65 56.05C595.2 57.31 597.01 58.86 598.08 60.71C599.15 62.56 599.68 64.87 599.68 67.62C599.68 70.37 598.98 72.89 597.58 74.9C596.18 76.92 594.12 78.44 591.41 79.47C588.7 80.5 585.45 81.01 581.66 81.01C577.46 81.01 573.96 80.38 571.14 79.13V79.1Z" fill="white"/>
<path d="M602.82 43.66H626.7V50.26H602.82V43.66ZM613.43 79.44C611.74 78.41 610.56 77 609.88 75.21C609.2 73.42 608.86 71.27 608.86 68.76V35.44H616.45V66.97C616.45 69.44 616.89 71.27 617.78 72.46C618.66 73.65 620.24 74.25 622.5 74.25C624.1 74.25 625.83 74.09 627.68 73.76V80.11C626.4 80.36 625.14 80.56 623.89 80.73C622.63 80.89 621.39 80.98 620.16 80.98C617.36 80.98 615.12 80.47 613.44 79.44H613.43Z" fill="white"/>
<path d="M667.41 80.06H659.82V76.48L660.19 72.28H659.63L660.68 70.68C659.98 72.78 659.01 74.6 657.78 76.14C656.55 77.68 655 78.88 653.15 79.72C651.3 80.56 649.2 80.98 646.86 80.98C642.46 80.98 639.06 79.71 636.65 77.15C634.24 74.6 633.04 70.65 633.04 65.3V43.64H640.69V64.31C640.69 67.64 641.42 70.13 642.88 71.78C644.34 73.43 646.47 74.25 649.27 74.25C651.61 74.25 653.58 73.67 655.16 72.52C656.74 71.37 657.92 69.87 658.68 68.02C659.44 66.17 659.82 64.2 659.82 62.1V43.65H667.41V80.05V80.06Z" fill="white"/>
<path d="M689.74 80.98C686.37 80.98 683.57 80.2 681.35 78.64C679.13 77.08 677.49 74.91 676.45 72.13C675.4 69.35 674.88 66.07 674.88 62.29V61.36C674.88 57.7 675.4 54.47 676.45 51.67C677.5 48.87 679.13 46.68 681.35 45.1C683.57 43.52 686.37 42.72 689.74 42.72C693.11 42.72 695.68 43.55 697.95 45.22C700.21 46.89 701.88 49.26 702.95 52.35L702.27 53.15L702.02 50.68H702.45L702.14 46.3V32.85H709.79V80.05H702.2V77.03L702.45 73.02H701.96L702.39 71.23L702.88 71.29C702.26 73.35 701.33 75.08 700.07 76.5C698.81 77.92 697.3 79.02 695.54 79.8C693.77 80.58 691.84 80.97 689.74 80.97V80.98ZM692.08 74.32C694.38 74.32 696.3 73.76 697.82 72.65C699.34 71.54 700.44 70.1 701.12 68.33C701.8 66.56 702.14 64.65 702.14 62.59V61.17C702.14 59.11 701.81 57.19 701.15 55.4C700.49 53.61 699.41 52.16 697.91 51.05C696.41 49.94 694.46 49.38 692.08 49.38C689.7 49.38 687.79 49.99 686.37 51.2C684.95 52.41 683.95 53.95 683.38 55.8C682.8 57.65 682.52 59.65 682.52 61.78V62.09C682.52 64.43 682.81 66.51 683.38 68.32C683.96 70.13 684.95 71.58 686.37 72.67C687.79 73.76 689.69 74.31 692.08 74.31V74.32Z" fill="white"/>
<path d="M724.94 78.73C722.37 77.23 720.44 75.07 719.14 72.25C717.84 69.43 717.2 66.05 717.2 62.1V61.24C717.2 57.37 717.86 54.06 719.17 51.31C720.49 48.55 722.46 46.44 725.09 44.96C727.72 43.48 730.87 42.74 734.53 42.74C738.19 42.74 741.48 43.45 744.03 44.87C746.58 46.29 748.48 48.36 749.74 51.07C750.99 53.78 751.62 57.14 751.62 61.13V63.41L744.03 62.98V59.65C744.03 57.47 743.69 55.62 743.01 54.1C742.33 52.58 741.28 51.42 739.86 50.61C738.44 49.81 736.64 49.41 734.46 49.41C732.4 49.41 730.67 49.83 729.25 50.67C727.83 51.51 726.74 52.84 725.98 54.65C725.22 56.46 724.84 58.74 724.84 61.5V62.12C724.84 64.83 725.21 67.1 725.95 68.91C726.69 70.72 727.76 72.08 729.16 72.98C730.56 73.89 732.31 74.34 734.4 74.34C737.32 74.34 739.55 73.75 741.09 72.58C742.63 71.41 743.55 69.73 743.84 67.55H751.43C751.18 70.26 750.39 72.64 749.05 74.68C747.71 76.72 745.8 78.28 743.31 79.37C740.82 80.46 737.81 81.01 734.27 81.01C730.73 81.01 727.49 80.26 724.92 78.76L724.94 78.73ZM723.8 58.59H747.86L751.56 60.81L751.62 63.9H723.67L723.79 58.59H723.8Z" fill="white"/>
<path d="M758.9 43.66H766.49V47.24L766.12 51.44H766.74L765.69 53.04C766.35 50.94 767.3 49.12 768.56 47.58C769.81 46.04 771.36 44.85 773.19 44C775.02 43.16 777.13 42.74 779.51 42.74C783.87 42.74 787.25 44.03 789.66 46.6C792.07 49.17 793.27 53.11 793.27 58.41V80.07H785.68V59.46C785.68 56.09 784.95 53.58 783.49 51.93C782.03 50.29 779.88 49.46 777.04 49.46C774.65 49.46 772.68 50.04 771.12 51.19C769.56 52.34 768.41 53.84 767.66 55.69C766.92 57.54 766.55 59.52 766.55 61.61V80.06H758.9V43.66Z" fill="white"/>
<path d="M798.45 43.66H822.33V50.26H798.45V43.66ZM809.06 79.44C807.37 78.41 806.19 77 805.51 75.21C804.83 73.42 804.49 71.27 804.49 68.76V35.44H812.08V66.97C812.08 69.44 812.52 71.27 813.41 72.46C814.29 73.65 815.87 74.25 818.13 74.25C819.73 74.25 821.46 74.09 823.31 73.76V80.11C822.03 80.36 820.77 80.56 819.52 80.73C818.26 80.89 817.02 80.98 815.79 80.98C812.99 80.98 810.75 80.47 809.07 79.44H809.06Z" fill="white"/>
<path d="M237.45 108.25L250.47 146.38L250.78 147.49H250.97L251.34 146.38L264.42 108.25H273.24L256.34 154.09H245.36L228.58 108.25H237.46H237.45Z" fill="white"/>
<path d="M284.25 152.83C281.6 151.37 279.58 149.24 278.2 146.44C276.82 143.64 276.13 140.25 276.13 136.26V135.46C276.13 131.51 276.82 128.14 278.2 125.34C279.58 122.54 281.6 120.41 284.28 118.95C286.95 117.49 290.18 116.76 293.97 116.76C297.76 116.76 300.98 117.49 303.66 118.95C306.33 120.41 308.36 122.54 309.74 125.34C311.12 128.14 311.81 131.51 311.81 135.46V136.26C311.81 140.25 311.12 143.64 309.74 146.44C308.36 149.24 306.34 151.37 303.66 152.83C300.99 154.29 297.76 155.02 293.97 155.02C290.18 155.02 286.91 154.29 284.25 152.83ZM299.49 147.03C300.99 146.15 302.14 144.79 302.94 142.96C303.74 141.13 304.14 138.86 304.14 136.14V135.71C304.14 133 303.75 130.71 302.97 128.86C302.19 127.01 301.04 125.64 299.52 124.76C298 123.88 296.15 123.43 293.97 123.43C291.79 123.43 289.9 123.87 288.42 124.76C286.94 125.65 285.8 127.01 285 128.86C284.2 130.71 283.8 132.99 283.8 135.71V136.14C283.8 138.85 284.2 141.13 285 142.96C285.8 144.79 286.94 146.15 288.42 147.03C289.9 147.92 291.75 148.36 293.97 148.36C296.19 148.36 297.99 147.92 299.49 147.03Z" fill="white"/>
<path d="M319.45 111.71C318.67 111.05 318.28 110.04 318.28 108.69C318.28 107.34 318.68 106.31 319.48 105.64C320.28 104.96 321.46 104.62 323.03 104.62C324.6 104.62 325.83 104.96 326.61 105.64C327.39 106.32 327.78 107.34 327.78 108.69C327.78 109.64 327.6 110.4 327.26 110.97C326.91 111.55 326.39 111.98 325.69 112.27C324.99 112.56 324.11 112.7 323.04 112.7C321.44 112.7 320.24 112.37 319.46 111.71H319.45ZM319.2 117.7H326.85V154.1H319.2V117.7Z" fill="white"/>
<path d="M342.21 152.74C339.58 151.26 337.58 149.11 336.23 146.29C334.87 143.47 334.19 140.11 334.19 136.2V135.46C334.19 131.55 334.88 128.21 336.26 125.43C337.64 122.65 339.65 120.52 342.31 119.01C344.96 117.51 348.1 116.76 351.72 116.76C355.09 116.76 357.99 117.31 360.42 118.39C362.85 119.48 364.75 121.1 366.13 123.23C367.51 125.37 368.28 127.98 368.44 131.07H360.67V131.13C360.55 129.44 360.1 128.02 359.34 126.87C358.58 125.72 357.54 124.85 356.22 124.28C354.9 123.7 353.36 123.42 351.59 123.42C349.57 123.42 347.84 123.86 346.38 124.75C344.92 125.64 343.8 127 343.02 128.85C342.24 130.7 341.85 132.96 341.85 135.64V136.07C341.85 138.83 342.25 141.13 343.05 142.98C343.85 144.83 344.98 146.19 346.44 147.05C347.9 147.91 349.64 148.35 351.65 148.35C353.5 148.35 355.07 148.03 356.37 147.39C357.67 146.75 358.68 145.84 359.42 144.64C360.16 143.45 360.61 142.05 360.78 140.44V140.38H368.49C368.33 143.51 367.55 146.17 366.18 148.37C364.8 150.57 362.89 152.22 360.44 153.31C357.99 154.4 355.08 154.95 351.71 154.95C348.01 154.95 344.84 154.21 342.21 152.73V152.74Z" fill="white"/>
<path d="M380.99 152.77C378.42 151.27 376.49 149.11 375.19 146.29C373.89 143.47 373.25 140.09 373.25 136.14V135.28C373.25 131.41 373.91 128.1 375.22 125.35C376.54 122.59 378.51 120.48 381.14 118.99C383.77 117.51 386.92 116.77 390.58 116.77C394.24 116.77 397.53 117.48 400.08 118.9C402.63 120.32 404.53 122.39 405.79 125.1C407.04 127.81 407.67 131.17 407.67 135.16V137.44L400.08 137.01V133.68C400.08 131.5 399.74 129.65 399.06 128.13C398.38 126.61 397.33 125.45 395.91 124.64C394.49 123.84 392.69 123.44 390.51 123.44C388.45 123.44 386.72 123.86 385.3 124.7C383.88 125.54 382.79 126.87 382.03 128.68C381.27 130.49 380.89 132.77 380.89 135.53V136.15C380.89 138.86 381.26 141.13 382 142.94C382.74 144.75 383.81 146.11 385.21 147.01C386.61 147.92 388.36 148.37 390.45 148.37C393.37 148.37 395.6 147.78 397.14 146.61C398.68 145.44 399.6 143.76 399.89 141.58H407.48C407.23 144.29 406.44 146.67 405.1 148.71C403.76 150.75 401.85 152.31 399.36 153.4C396.87 154.49 393.86 155.04 390.32 155.04C386.78 155.04 383.54 154.29 380.97 152.79L380.99 152.77ZM379.85 132.63H403.91L407.61 134.85L407.67 137.93H379.72L379.84 132.62L379.85 132.63Z" fill="white"/>
<path d="M443.27 115.16H428.65V108.25H466.22V115.16H451.54V154.09H443.27V115.16Z" fill="white"/>
<path d="M475.94 152.77C473.37 151.27 471.44 149.11 470.14 146.29C468.84 143.47 468.2 140.09 468.2 136.14V135.28C468.2 131.41 468.86 128.1 470.17 125.35C471.49 122.59 473.46 120.48 476.09 118.99C478.72 117.51 481.87 116.77 485.53 116.77C489.19 116.77 492.48 117.48 495.03 118.9C497.58 120.32 499.48 122.39 500.74 125.1C501.99 127.81 502.62 131.17 502.62 135.16V137.44L495.03 137.01V133.68C495.03 131.5 494.69 129.65 494.01 128.13C493.33 126.61 492.28 125.45 490.86 124.64C489.44 123.84 487.64 123.44 485.46 123.44C483.4 123.44 481.67 123.86 480.25 124.7C478.83 125.54 477.74 126.87 476.98 128.68C476.22 130.49 475.84 132.77 475.84 135.53V136.15C475.84 138.86 476.21 141.13 476.95 142.94C477.69 144.75 478.76 146.11 480.16 147.01C481.56 147.92 483.31 148.37 485.4 148.37C488.32 148.37 490.55 147.78 492.09 146.61C493.63 145.44 494.55 143.76 494.84 141.58H502.43C502.18 144.29 501.39 146.67 500.05 148.71C498.71 150.75 496.8 152.31 494.31 153.4C491.82 154.49 488.81 155.04 485.27 155.04C481.73 155.04 478.49 154.29 475.92 152.79L475.94 152.77ZM474.8 132.63H498.86L502.56 134.85L502.62 137.93H474.67L474.79 132.62L474.8 132.63Z" fill="white"/>
<path d="M510.92 151.59C508.84 149.31 507.8 146.5 507.8 143.17C507.8 141.03 508.27 139.09 509.22 137.34C510.17 135.59 511.73 134.19 513.91 133.14C516.09 132.09 518.91 131.57 522.36 131.57C524.54 131.57 526.65 131.76 528.68 132.13C530.72 132.5 532.45 132.95 533.89 133.49V131.27C533.89 128.68 533.17 126.59 531.73 125.01C530.29 123.43 527.97 122.63 524.76 122.63C521.96 122.63 519.91 123.29 518.59 124.6C517.27 125.92 516.53 127.6 516.37 129.66H508.97V129.6C509.13 127.46 509.7 125.44 510.67 123.52C511.64 121.61 513.29 120 515.64 118.71C517.98 117.41 521.09 116.77 524.96 116.77C529.2 116.77 532.54 117.47 534.99 118.87C537.44 120.27 539.13 122.11 540.08 124.39C541.03 126.67 541.5 129.34 541.5 132.38V154.1H533.91V149.97L534.28 146.64H533.42L534.65 145.22C534.03 147.19 533.11 148.91 531.87 150.37C530.64 151.83 529.1 152.97 527.27 153.79C525.44 154.61 523.39 155.02 521.13 155.02C516.4 155.02 513 153.88 510.92 151.6V151.59ZM529.15 146.99C530.75 145.84 531.95 144.41 532.73 142.7C533.51 140.99 533.9 139.32 533.9 137.67V139.03C532.71 138.45 531.13 137.97 529.18 137.58C527.23 137.19 525.39 136.99 523.66 136.99C520.66 136.99 518.53 137.53 517.27 138.59C516.01 139.66 515.37 141 515.33 142.6V142.91C515.33 144.6 515.94 145.99 517.15 147.07C518.36 148.16 520.35 148.71 523.1 148.71C525.53 148.71 527.54 148.13 529.15 146.98V146.99Z" fill="white"/>
<path d="M550.68 117.69H558.33V121.27L557.9 125.47H558.02C558.72 123.74 559.71 122.23 560.98 120.93C562.25 119.63 563.74 118.62 565.42 117.88C567.11 117.14 568.96 116.77 570.97 116.77C574.38 116.77 577.05 117.58 578.96 119.21C580.87 120.84 582.18 122.9 582.88 125.41H583C583.74 123.72 584.76 122.23 586.05 120.94C587.35 119.64 588.87 118.63 590.62 117.89C592.37 117.15 594.25 116.78 596.27 116.78C599.89 116.78 602.62 117.65 604.48 119.4C606.33 121.15 607.52 123.15 608.06 125.42C608.59 127.68 608.86 130.07 608.86 132.58V154.11H601.15V133.93C601.15 132.08 600.94 130.39 600.53 128.87C600.12 127.35 599.34 126.07 598.19 125.04C597.04 124.01 595.43 123.5 593.38 123.5C591.33 123.5 589.56 124.08 588.07 125.23C586.59 126.38 585.46 127.85 584.68 129.64C583.9 131.43 583.51 133.25 583.51 135.1V154.1H575.92V133.49C575.92 131.76 575.7 130.17 575.27 128.71C574.84 127.25 574.04 126.02 572.86 125.01C571.69 124 570.05 123.5 567.96 123.5C565.99 123.5 564.27 124.09 562.81 125.26C561.35 126.43 560.24 127.91 559.48 129.7C558.72 131.49 558.34 133.31 558.34 135.16V154.1H550.69V117.7L550.68 117.69Z" fill="white"/>
</g>
<defs>
<clipPath id="clip0_2_695">
<rect width="823" height="188" fill="white"/>
</clipPath>
</defs>
</svg>
